<svg width="35" height="29" viewBox="0 0 35 29" fill="none" xmlns="http://www.w3.org/2000/svg">
<path d="M23.3332 3.625C22.5596 3.625 21.8178 3.87961 21.2708 4.33283C20.7238 4.78604 20.4165 5.40073 20.4165 6.04167V13.2917C20.4165 13.9326 20.7238 14.5473 21.2708 15.0005C21.8178 15.4537 22.5596 15.7083 23.3332 15.7083C23.7199 15.7083 24.0909 15.8356 24.3644 16.0622C24.6379 16.2889 24.7915 16.5962 24.7915 16.9167V18.125C24.7915 18.7659 24.4842 19.3806 23.9372 19.8338C23.3903 20.2871 22.6484 20.5417 21.8748 20.5417C21.4881 20.5417 21.1171 20.669 20.8436 20.8956C20.5701 21.1222 20.4165 21.4295 20.4165 21.75V24.1667C20.4165 24.4871 20.5701 24.7945 20.8436 25.0211C21.1171 25.2477 21.4881 25.375 21.8748 25.375C24.1955 25.375 26.4211 24.6112 28.062 23.2515C29.703 21.8919 30.6248 20.0478 30.6248 18.125V6.04167C30.6248 5.40073 30.3175 4.78604 29.7706 4.33283C29.2236 3.87961 28.4817 3.625 27.7082 3.625H23.3332Z" stroke="#7CB342" stroke-width="3.33333" stroke-linecap="round" stroke-linejoin="round"/>
<path d="M7.29167 3.625C6.51812 3.625 5.77625 3.87961 5.22927 4.33283C4.68229 4.78604 4.375 5.40073 4.375 6.04167V13.2917C4.375 13.9326 4.68229 14.5473 5.22927 15.0005C5.77625 15.4537 6.51812 15.7083 7.29167 15.7083C7.67844 15.7083 8.04937 15.8356 8.32286 16.0622C8.59636 16.2889 8.75 16.5962 8.75 16.9167V18.125C8.75 18.7659 8.44271 19.3806 7.89573 19.8338C7.34875 20.2871 6.60688 20.5417 5.83333 20.5417C5.44656 20.5417 5.07563 20.669 4.80214 20.8956C4.52865 21.1222 4.375 21.4295 4.375 21.75V24.1667C4.375 24.4871 4.52865 24.7945 4.80214 25.0211C5.07563 25.2477 5.44656 25.375 5.83333 25.375C8.15398 25.375 10.3796 24.6112 12.0205 23.2515C13.6615 21.8919 14.5833 20.0478 14.5833 18.125V6.04167C14.5833 5.40073 14.276 4.78604 13.7291 4.33283C13.1821 3.87961 12.4402 3.625 11.6667 3.625H7.29167Z" stroke="#7CB342" stroke-width="3.33333" stroke-linecap="round" stroke-linejoin="round"/>
</svg>
